<svg width="64" height="64" viewBox="0 0 22 22" fill="none" xmlns="http://www.w3.org/2000/svg">
  <defs>
    <linearGradient id="gradBook" x1="0%" y1="0%" x2="100%" y2="100%">
      <stop offset="0%" stop-color="#3b82f6"/>
      <stop offset="100%" stop-color="#06d6a0"/>
    </linearGradient>
  </defs>

  <g stroke="url(#gradBook)" stroke-width="2.2" stroke-linecap="round" stroke-linejoin="round">
    <path d="M11 19c-3 -2 -6 -2 -8 -2V4c2 0 5 0 8 2c3 -2 6 -2 8 -2v13c-2 0 -5 0 -8 2z" fill="rgba(59,130,246,0.1)"/>
    <path d="M11 19V6" stroke-width="2.7"/>
    <path d="M6 7c2 1 3.5 1.5 5 2" stroke-width="1.5" opacity="0.75"/>
    <path d="M16 7c-2 1 -3.5 1.5 -5 2" stroke-width="1.5" opacity="0.75"/>
    <path d="M5 11c2 1 4 1.5 6 1.5" stroke-width="1.5" opacity="0.4"/>
    <path d="M17 11c-2 1 -4 1.5 -6 1.5" stroke-width="1.5" opacity="0.4"/>
  </g>
</svg>